<svg enable-background="new 0 0 25 54" height="54" viewBox="0 0 25 54" width="25" xmlns="http://www.w3.org/2000/svg"><path d="m25 20.0997h-1.0032c-.0243-2.3976-1.4203-4.4615-3.4401-5.4559-.9952-.6759-1.586-1.6193-1.6801-2.6406l-.4371-3.7858c-.1362-1.0386-.3065-1.1919-1.907-1.5324 0 0-2.4008-.3122-4.5491-.3122s-4.5491.3123-4.5491.3123c-1.6006.3405-1.7709.4938-1.9071 1.5324l-.437 3.7858c-.0943 1.0228-.6628 1.9677-1.6535 2.6437-2.0341 1.0044-3.4367 3.0936-3.4367 5.5157v15.9209c0 2.3876 1.3623 4.4532 3.3496 5.4737 1.0522.6973 1.615 1.7505 1.7129 2.8124l.437 3.7858c.1362 1.0386.3065 1.1919 1.9071 1.5325 0 0 2.4008.3121 4.5491.3121s4.5491-.3121 4.5491-.3121c1.6006-.3406 1.7708-.4938 1.907-1.5325l.4371-3.7858c.0959-1.0402.7045-2.0801 1.7336-2.7797 2.0238-1.0081 3.4175-3.092 3.4175-5.5064v-10.7539h1zm-2 15.9839c0 2.8422-2.3123 5.1545-5.1545 5.1545h-11.6909c-2.8423 0-5.1546-2.3123-5.1546-5.1545v-15.9209c0-2.8423 2.3123-5.1546 5.1546-5.1546h11.6909c2.8422 0 5.1545 2.3123 5.1545 5.1546v5.167z" fill="#1d1d1f"/><path d="m0 0h25v54h-25z" fill="none"/></svg>