<svg xmlns="http://www.w3.org/2000/svg" viewBox="0 0 123.93 129">
  <title>screen-info</title>
  <g id="图层_2" data-name="图层 2">
    <g id="图层_1-2" data-name="图层 1">
      <g id="screen-info">
        <rect class="cls-1" x="34.43" y="0.5" width="89" height="105" rx="16.5"/>
        <path class="cls-2"
              d="M106.93,1a16,16,0,0,1,16,16V89a16,16,0,0,1-16,16h-56a16,16,0,0,1-16-16V17a16,16,0,0,1,16-16h56m0-1h-56a17,17,0,0,0-17,17V89a17,17,0,0,0,17,17h56a17,17,0,0,0,17-17V17a17,17,0,0,0-17-17Z"/>
        <path class="cls-3"
              d="M112.93,31h-10V21h-10V11h-10V1h-32a16,16,0,0,0-16,16V89a16,16,0,0,0,16,16h56a16,16,0,0,0,16-16V41h-10Z"/>
        <rect class="cls-4" x="82.93" y="1" width="10" height="10"/>
        <rect class="cls-5" x="92.93" y="1" width="10" height="10"/>
        <path class="cls-6" d="M112.93,11V2.17a16,16,0,0,0-6-1.17h-4V11Z"/>
        <path class="cls-7" d="M121.75,11a16.06,16.06,0,0,0-8.82-8.83V11Z"/>
        <rect class="cls-4" x="92.93" y="11" width="10" height="10"/>
        <rect class="cls-5" x="102.93" y="11" width="10" height="10"/>
        <path class="cls-6" d="M112.93,11V21h10V17a16,16,0,0,0-1.18-6Z"/>
        <rect class="cls-4" x="102.93" y="21" width="10" height="10"/>
        <rect class="cls-5" x="112.93" y="21" width="10" height="10"/>
        <rect class="cls-4" x="112.93" y="31" width="10" height="10"/>
        <rect class="cls-8" x="82.93" y="11" width="10" height="10"/>
        <rect class="cls-8" x="92.93" y="21" width="10" height="10"/>
        <rect class="cls-8" x="102.93" y="31" width="10" height="10"/>
        <rect class="cls-8" x="112.93" y="41" width="10" height="10"/>
        <rect class="cls-8" x="72.93" y="1" width="10" height="10"/>
        <line class="cls-9" x1="17.93" y1="2.75" x2="17.93" y2="104.25"/>
        <rect class="cls-10" x="16.3" y="2.5" width="3.25" height="0.5"/>
        <rect class="cls-10" x="16.3" y="104" width="3.25" height="0.5"/>
        <line class="cls-9" x1="35.68" y1="120" x2="123.18" y2="120"/>
        <rect class="cls-10" x="35.43" y="118.37" width="0.5" height="3.25"/>
        <rect class="cls-10" x="122.93" y="118.37" width="0.5" height="3.25"/>
        <rect class="cls-1" x="0.93" y="45" width="30" height="19"/>
        <rect class="cls-1" x="62.93" y="110" width="30" height="19"/>
        <text id="height" class="cls-11" transform="translate(0 58.51)">368</text>
        <text id="width" class="cls-11" transform="translate(66.97 123.96)">430</text>
        <text class="cls-12" transform="translate(46.48 53.04)">1000</text>
        <text class="cls-13" transform="translate(74.48 53.04)">nit</text>
        <text class="cls-12" transform="translate(46.48 67.04)">363</text>
        <text class="cls-13" transform="translate(67.48 67.04)">ppi</text>
        <text class="cls-12" transform="translate(46.75 94.01)">3D
          <tspan class="cls-14" x="16.44" y="0">T</tspan>
          <tspan x="21.06" y="0">ouch</tspan>
        </text>
      </g>
    </g>
  </g>
</svg>
